<svg width="21" height="21" viewBox="0 0 21 21" fill="none" xmlns="http://www.w3.org/2000/svg">
<g clip-path="url(#clip0_75_3649)">
<path d="M14 19.25V15.8638C14.0328 15.4465 13.9765 15.0271 13.8346 14.6333C13.6928 14.2396 13.4688 13.8805 13.1775 13.58C15.925 13.2738 18.8125 12.2325 18.8125 7.45501C18.8123 6.23336 18.3424 5.05856 17.5 4.17376C17.8989 3.10495 17.8707 1.92356 17.4212 0.875006C17.4212 0.875006 16.3888 0.568756 14 2.17001C11.9945 1.62648 9.88049 1.62648 7.875 2.17001C5.48625 0.568756 4.45375 0.875006 4.45375 0.875006C4.00433 1.92356 3.97613 3.10495 4.375 4.17376C3.52636 5.06512 3.05596 6.25054 3.0625 7.48126C3.0625 12.2238 5.95 13.265 8.6975 13.6063C8.40962 13.9037 8.18761 14.2585 8.0459 14.6474C7.90418 15.0364 7.84596 15.4508 7.875 15.8638V19.25M7.875 16.625C3.5 17.9375 3.5 14.4375 1.75 14L7.875 16.625Z" stroke="white" stroke-width="2" stroke-linecap="round" stroke-linejoin="round"/>
</g>
<defs>
<clipPath id="clip0_75_3649">
<rect width="21" height="21" fill="white"/>
</clipPath>
</defs>
</svg>
